<?xml version="1.0" encoding="UTF-8"?>
<svg width="143px" height="51px" viewBox="0 0 143 51" version="1.1" xmlns="http://www.w3.org/2000/svg" xmlns:xlink="http://www.w3.org/1999/xlink">
    <!-- Generator: Sketch 49 (51002) - http://www.bohemiancoding.com/sketch -->
    <title>logo</title>
    <desc>Created with Sketch.</desc>
    <defs>
        <polygon id="path-1" points="0 0.3372 16.7027 0.3372 16.7027 21.6792 0 21.6792"></polygon>
        <polygon id="path-3" points="0.3999 0.9682 19.1839 0.9682 19.1839 21 0.3999 21"></polygon>
        <polygon id="path-5" points="0.0724 -0.0002 5.672 -0.0002 5.672 19.8398 0.0724 19.8398"></polygon>
    </defs>
    <g id="logo" stroke="none" stroke-width="1" fill="none" fill-rule="evenodd">
        <g id="Page-1" transform="translate(4.000000, 14.000000)">
            <g id="Group-3" transform="translate(0.000000, 0.663100)">
                <mask id="mask-2" fill="white">
                    <use xlink:href="#path-1"></use>
                </mask>
                <g id="Clip-2"></g>
                <path d="M4.9277,10.0322 L6.0477,10.0322 C6.9437,10.0322 8.1587,9.9362 8.9907,9.1042 C9.3437,8.7532 9.7907,8.0812 9.7907,7.0242 C9.7907,5.8082 9.2157,5.1692 8.7997,4.8482 C7.9997,4.2412 6.7197,4.1772 6.0797,4.1772 L4.9277,4.1772 L4.9277,10.0322 Z M7.4877,0.3372 C10.2067,0.3372 11.9027,1.2332 12.9267,2.1932 C13.8227,3.0562 14.7827,4.5932 14.7827,6.9612 C14.7827,8.3042 14.4947,9.9692 13.1187,11.3122 C12.3827,12.0162 11.3267,12.6562 10.1427,12.9442 L16.7027,21.6792 L10.6867,21.6792 L4.9277,13.2642 L4.9277,21.6792 L-0.0003,21.6792 L-0.0003,0.3372 L7.4877,0.3372 Z" id="Fill-1" fill="#FFFFFF" mask="url(#mask-2)"></path>
            </g>
            <path d="M28.5112,13.2559 C28.4792,13.1279 28.2552,12.2319 27.5832,11.5919 C27.0712,11.1109 26.3352,10.7919 25.4072,10.7919 C24.2232,10.7919 23.5192,11.2719 23.0722,11.7199 C22.7192,12.1039 22.3992,12.6149 22.2712,13.2559 L28.5112,13.2559 Z M32.7672,16.0069 L22.1122,16.0069 C22.1122,16.7759 22.3992,17.7989 22.9752,18.4399 C23.6792,19.2069 24.6392,19.3349 25.3432,19.3349 C26.0152,19.3349 26.7192,19.2069 27.1992,18.9189 C27.2632,18.8869 27.8072,18.5349 28.1912,17.7349 L32.5432,18.1829 C31.9032,20.1989 30.6232,21.2549 29.7912,21.7669 C28.4152,22.5989 26.8792,22.8219 25.2792,22.8219 C23.1362,22.8219 21.2472,22.4389 19.5842,20.7749 C18.3362,19.5269 17.4402,17.6389 17.4402,15.2719 C17.4402,13.2239 18.1762,11.1109 19.6152,9.6399 C21.3442,7.9119 23.4872,7.5919 25.0872,7.5919 C26.6872,7.5919 28.9912,7.8799 30.7512,9.7349 C32.4472,11.5269 32.7672,13.7679 32.7672,15.5269 L32.7672,16.0069 Z" id="Fill-4" fill="#FFFFFF"></path>
            <path d="M43.647,11.7197 C42.943,11.3037 42.015,10.9197 41.119,10.9197 C40.639,10.9197 40.095,11.0477 39.807,11.3357 C39.647,11.4947 39.519,11.7517 39.519,11.9757 C39.519,12.2957 39.743,12.4877 39.967,12.6157 C40.287,12.8077 40.767,12.9037 41.343,13.0957 L42.559,13.4797 C43.359,13.7357 44.191,14.0557 44.927,14.7277 C45.759,15.4947 46.047,16.3597 46.047,17.4477 C46.047,19.3347 45.215,20.5507 44.575,21.1907 C43.167,22.5987 41.439,22.8227 39.935,22.8227 C38.015,22.8227 35.936,22.4077 34.08,20.7747 L36.031,17.6707 C36.48,18.0547 37.119,18.5027 37.599,18.7267 C38.239,19.0467 38.911,19.1747 39.519,19.1747 C39.807,19.1747 40.543,19.1747 40.959,18.8557 C41.247,18.6307 41.439,18.2797 41.439,17.9267 C41.439,17.6707 41.343,17.3517 40.927,17.0947 C40.607,16.9037 40.191,16.7757 39.519,16.5827 L38.367,16.2317 C37.535,15.9757 36.671,15.5277 36.064,14.9187 C35.392,14.2157 35.04,13.4147 35.04,12.3267 C35.04,10.9507 35.584,9.7997 36.416,9.0317 C37.695,7.8477 39.423,7.5917 40.735,7.5917 C42.847,7.5917 44.319,8.1357 45.471,8.8077 L43.647,11.7197 Z" id="Fill-6" fill="#FFFFFF"></path>
            <path d="M52.6709,8.0723 L52.6709,15.9433 C52.6709,16.5833 52.7349,17.5753 53.4709,18.2473 C53.7909,18.5353 54.3669,18.9193 55.3909,18.9193 C56.2549,18.9193 56.9269,18.6313 57.3429,18.2473 C58.0149,17.6073 58.1109,16.6473 58.1109,15.9433 L58.1109,8.0723 L62.7179,8.0723 L62.7179,16.3913 C62.7179,18.0233 62.5579,19.5583 61.1179,20.9673 C59.4859,22.5663 57.0869,22.8223 55.3909,22.8223 C53.6309,22.8223 51.2629,22.5663 49.6309,20.9673 C48.3189,19.6863 48.0639,18.2473 48.0639,16.6783 L48.0639,8.0723 L52.6709,8.0723 Z" id="Fill-8" fill="#FFFFFF"></path>
            <path d="M65.5674,8.0723 L70.1744,8.0723 L70.1744,9.7353 C71.3594,7.9433 73.0874,7.7193 74.1744,7.7193 C74.7824,7.7193 75.9024,7.7843 76.8624,8.3593 C77.5984,8.7753 78.2064,9.4793 78.5904,10.3433 C78.9424,9.7673 79.4864,9.0953 80.4144,8.5193 C81.4064,7.9123 82.3344,7.7193 83.4544,7.7193 C85.1814,7.7193 86.5894,8.2313 87.4534,9.0633 C88.8294,10.3763 88.9254,12.2963 88.9254,13.3193 L88.9254,22.3433 L84.3174,22.3433 L84.3174,15.1113 C84.3174,14.3753 84.3174,13.0953 83.7104,12.3273 C83.3264,11.8473 82.7174,11.5593 82.0464,11.5593 C81.2784,11.5593 80.6384,11.9113 80.2544,12.4243 C79.6464,13.1913 79.5504,14.3113 79.5504,15.2393 L79.5504,22.3433 L74.9424,22.3433 L74.9424,14.9193 C74.9424,13.9593 74.9104,12.8403 74.2064,12.1353 C73.7264,11.6553 73.1504,11.5593 72.6714,11.5593 C72.0634,11.5593 71.5194,11.7193 71.0704,12.1353 C70.2074,12.9683 70.1744,14.5673 70.1744,15.0473 L70.1744,22.3433 L65.5674,22.3433 L65.5674,8.0723 Z" id="Fill-10" fill="#FFFFFF"></path>
            <path d="M102.1738,13.2559 C102.1418,13.1279 101.9178,12.2319 101.2458,11.5919 C100.7338,11.1109 99.9978,10.7919 99.0698,10.7919 C97.8858,10.7919 97.1818,11.2719 96.7348,11.7199 C96.3818,12.1039 96.0618,12.6149 95.9338,13.2559 L102.1738,13.2559 Z M106.4298,16.0069 L95.7748,16.0069 C95.7748,16.7759 96.0618,17.7989 96.6378,18.4399 C97.3418,19.2069 98.3018,19.3349 99.0058,19.3349 C99.6778,19.3349 100.3818,19.2069 100.8618,18.9189 C100.9258,18.8869 101.4698,18.5349 101.8538,17.7349 L106.2058,18.1829 C105.5658,20.1989 104.2858,21.2549 103.4538,21.7669 C102.0778,22.5989 100.5418,22.8219 98.9418,22.8219 C96.7988,22.8219 94.9098,22.4389 93.2468,20.7749 C91.9988,19.5269 91.1028,17.6389 91.1028,15.2719 C91.1028,13.2239 91.8388,11.1109 93.2778,9.6399 C95.0068,7.9119 97.1498,7.5919 98.7498,7.5919 C100.3498,7.5919 102.6538,7.8799 104.4138,9.7349 C106.1098,11.5269 106.4298,13.7679 106.4298,15.5269 L106.4298,16.0069 Z" id="Fill-12" fill="#FFFFFF"></path>
            <g id="Group-20" opacity="0.583673007" transform="translate(109.000000, 2.663100)">
                <g id="Group-16">
                    <mask id="mask-4" fill="white">
                        <use xlink:href="#path-3"></use>
                    </mask>
                    <g id="Clip-15"></g>
                    <path d="M9.7119,5.9912 C9.4129,6.8872 9.0769,7.8852 8.7039,8.9832 C8.3309,10.0832 7.9949,11.1972 7.6959,12.3282 L11.6639,12.3282 C11.3649,11.1762 11.0609,10.0512 10.7519,8.9522 C10.4419,7.8532 10.1599,6.8662 9.9039,5.9912 L9.7119,5.9912 Z M5.8719,1.8632 C6.2339,1.6502 6.7839,1.4472 7.5199,1.2562 C8.2559,1.0632 8.9969,0.9682 9.7439,0.9682 C10.8109,0.9682 11.7539,1.1232 12.5759,1.4312 C13.3969,1.7412 13.9249,2.2262 14.1599,2.8872 C14.5439,3.9972 14.9599,5.2882 15.4079,6.7602 C15.8559,8.2312 16.3039,9.7522 16.7519,11.3192 C17.1999,12.8872 17.6369,14.4342 18.0639,15.9602 C18.4909,17.4852 18.8639,18.8352 19.1839,20.0082 C18.9279,20.3062 18.5439,20.5472 18.0319,20.7272 C17.5199,20.9082 16.9119,21.0002 16.2079,21.0002 C15.6959,21.0002 15.2639,20.9572 14.9119,20.8722 C14.5599,20.7862 14.2719,20.6582 14.0479,20.4872 C13.8239,20.3172 13.6429,20.0932 13.5039,19.8152 C13.3649,19.5392 13.2429,19.2192 13.1359,18.8552 L12.5599,16.6472 L6.7679,16.6472 C6.5969,17.2882 6.4269,17.9492 6.2559,18.6322 C6.0849,19.3142 5.9149,19.9752 5.7439,20.6152 C5.4449,20.7222 5.1299,20.8122 4.7999,20.8872 C4.4689,20.9622 4.0689,21.0002 3.5999,21.0002 C2.5119,21.0002 1.7069,20.8122 1.1839,20.4392 C0.6609,20.0662 0.3999,19.5492 0.3999,18.8872 C0.3999,18.5892 0.4419,18.2912 0.5279,17.9912 C0.6129,17.6932 0.7089,17.3412 0.8159,16.9352 C0.9649,16.3592 1.1729,15.6452 1.4399,14.7922 C1.7069,13.9382 1.9999,13.0152 2.3199,12.0232 C2.6399,11.0312 2.9809,10.0132 3.3439,8.9682 C3.7069,7.9232 4.0479,6.9352 4.3679,6.0082 C4.6879,5.0802 4.9809,4.2532 5.2479,3.5272 C5.5149,2.8032 5.7229,2.2482 5.8719,1.8632 Z" id="Fill-14" fill="#FFFFFF" mask="url(#mask-4)"></path>
                </g>
                <g id="Group-19" transform="translate(21.000000, 1.000000)">
                    <mask id="mask-6" fill="white">
                        <use xlink:href="#path-5"></use>
                    </mask>
                    <g id="Clip-18"></g>
                    <path d="M5.6724,19.5518 C5.4374,19.6148 5.0694,19.6798 4.5684,19.7438 C4.0674,19.8078 3.5704,19.8398 3.0804,19.8398 C2.5894,19.8398 2.1574,19.8018 1.7844,19.7278 C1.4104,19.6538 1.0964,19.5198 0.8404,19.3278 C0.5844,19.1358 0.3924,18.8688 0.2644,18.5278 C0.1364,18.1868 0.0724,17.7388 0.0724,17.1838 L0.0724,0.2878 C0.3064,0.2448 0.6804,0.1868 1.1924,0.1118 C1.7044,0.0368 2.1944,-0.0002 2.6644,-0.0002 C3.1544,-0.0002 3.5874,0.0368 3.9604,0.1118 C4.3334,0.1868 4.6484,0.3198 4.9044,0.5118 C5.1604,0.7038 5.3524,0.9708 5.4804,1.3118 C5.6084,1.6538 5.6724,2.1018 5.6724,2.6558 L5.6724,19.5518 Z" id="Fill-17" fill="#FFFFFF" mask="url(#mask-6)"></path>
                </g>
            </g>
        </g>
    </g>
</svg>