<?xml version="1.0" encoding="UTF-8"?>
<svg width="114px" height="51px" viewBox="0 0 114 51" version="1.1" xmlns="http://www.w3.org/2000/svg" xmlns:xlink="http://www.w3.org/1999/xlink">
    <!-- Generator: Sketch 51.2 (57519) - http://www.bohemiancoding.com/sketch -->
    <title>logo</title>
    <desc>Created with Sketch.</desc>
    <defs>
        <polygon id="path-1" points="0.0001 0.12 10.4201 0.12 10.4201 14.8797 0.0001 14.8797"></polygon>
        <polygon id="path-3" points="0.7593 0.1602 10.1393 0.1602 10.1393 11 0.7593 11"></polygon>
    </defs>
    <g id="logo" stroke="none" stroke-width="1" fill="none" fill-rule="evenodd">
        <g id="Group-19" transform="translate(8.000000, 16.000000)">
            <g id="Group-3" transform="translate(0.000000, 0.879900)">
                <mask id="mask-2" fill="white">
                    <use xlink:href="#path-1"></use>
                </mask>
                <g id="Clip-2"></g>
                <path d="M5.5801,7.2197 C6.2201,7.2197 6.7171,7.0367 7.0701,6.6697 C7.4231,6.3037 7.6001,5.6467 7.6001,4.6997 C7.6001,3.7927 7.4231,3.1727 7.0701,2.8397 C6.7171,2.5067 6.2201,2.3397 5.5801,2.3397 L2.4601,2.3397 L2.4601,7.2197 L5.5801,7.2197 Z M0.0001,0.1197 L6.0001,0.1197 C7.2531,0.1197 8.2471,0.4497 8.9801,1.1107 C9.7131,1.7697 10.0801,2.9667 10.0801,4.6997 C10.0801,6.0067 9.8501,6.9597 9.3901,7.5597 C8.9301,8.1597 8.3271,8.5867 7.5801,8.8397 L10.4201,14.8797 L7.9201,14.8797 L5.3601,9.1997 C4.5471,9.1997 3.5801,9.1867 2.4601,9.1597 L2.4601,14.8797 L0.0001,14.8797 L0.0001,0.1197 Z" id="Fill-1" fill="#FFFFFF" mask="url(#mask-2)"></path>
            </g>
            <path d="M17.3999,9.7998 C17.8799,9.7998 18.2269,9.7068 18.4399,9.5198 C18.6529,9.3328 18.7599,9.0068 18.7599,8.5398 C18.7599,7.8468 18.6069,7.3658 18.2999,7.0998 C17.9929,6.8328 17.4599,6.6998 16.6999,6.6998 C16.1269,6.6998 15.6829,6.7898 15.3699,6.9698 C15.0569,7.1498 14.8299,7.4598 14.6899,7.8998 C14.5499,8.3398 14.4799,8.9738 14.4799,9.7998 L17.3999,9.7998 Z M13.9699,15.3698 C13.2969,15.0428 12.8099,14.4898 12.5099,13.7098 C12.2099,12.9298 12.0599,11.8258 12.0599,10.3998 C12.0599,8.9458 12.2029,7.8258 12.4899,7.0398 C12.7769,6.2528 13.2499,5.6998 13.9099,5.3798 C14.5699,5.0598 15.4999,4.8998 16.6999,4.8998 C17.7539,4.8998 18.5869,5.0068 19.1999,5.2198 C19.8139,5.4338 20.2599,5.8028 20.5399,6.3298 C20.8199,6.8568 20.9599,7.5928 20.9599,8.5398 C20.9599,9.5268 20.6769,10.2338 20.1099,10.6598 C19.5439,11.0868 18.7199,11.2998 17.6399,11.2998 L14.4999,11.2998 C14.5269,11.9928 14.6199,12.5288 14.7799,12.9098 C14.9399,13.2898 15.2229,13.5668 15.6299,13.7398 C16.0369,13.9128 16.6269,13.9998 17.3999,13.9998 L20.6399,13.9998 L20.6399,15.4598 C19.9199,15.5928 19.2769,15.6938 18.7099,15.7598 C18.1429,15.8258 17.4929,15.8598 16.7599,15.8598 C15.5729,15.8598 14.6429,15.6958 13.9699,15.3698 Z" id="Fill-4" fill="#FFFFFF"></path>
            <polygon id="Fill-6" fill="#FFFFFF" points="23.1396 13.96 28.5796 7.04 22.9596 7.04 22.9596 5.04 31.4596 5.04 31.4596 6.84 25.9996 13.76 31.4596 13.76 31.4596 15.76 23.1396 15.76"></polygon>
            <g id="Group-10" transform="translate(33.000000, 4.879900)">
                <mask id="mask-4" fill="white">
                    <use xlink:href="#path-3"></use>
                </mask>
                <g id="Clip-9"></g>
                <path d="M1.5693,10.1602 C1.0293,9.5992 0.7593,8.7932 0.7593,7.7402 L0.7593,0.1602 L3.2393,0.1602 L3.2393,7.0192 C3.2393,7.6862 3.3893,8.1492 3.6893,8.4102 C3.9893,8.6702 4.4463,8.8002 5.0593,8.8002 C5.9923,8.8002 6.8593,8.5142 7.6593,7.9392 L7.6593,0.1602 L10.1393,0.1602 L10.1393,10.8802 L8.1193,10.8802 L7.6593,9.7602 C6.3793,10.5872 5.1193,11.0002 3.8793,11.0002 C2.8793,11.0002 2.1093,10.7202 1.5693,10.1602" id="Fill-8" fill="#FFFFFF" mask="url(#mask-4)"></path>
            </g>
            <path d="M45.939,5.0401 L47.959,5.0401 L48.419,6.1601 C48.992,5.7471 49.572,5.4271 50.159,5.2001 C50.746,4.9741 51.412,4.8591 52.159,4.8591 C52.799,4.8591 53.349,5.0001 53.809,5.2791 C54.269,5.5601 54.626,5.9341 54.879,6.3991 C55.439,5.9861 56.076,5.6271 56.789,5.3191 C57.502,5.0141 58.186,4.8591 58.839,4.8591 C61.092,4.8591 62.219,6.1461 62.219,8.7201 L62.219,15.7601 L59.739,15.7601 L59.739,8.9201 C59.739,8.3471 59.579,7.8991 59.259,7.5801 C58.939,7.2601 58.506,7.1001 57.959,7.1001 C57.506,7.1001 57.036,7.1861 56.549,7.3591 C56.063,7.5331 55.606,7.7671 55.179,8.0601 C55.272,8.3261 55.319,8.6331 55.319,8.9791 L55.319,15.7601 L52.839,15.7601 L52.839,8.9201 C52.839,8.3471 52.679,7.8991 52.359,7.5801 C52.039,7.2601 51.606,7.1001 51.059,7.1001 C50.566,7.1001 50.112,7.1731 49.699,7.3191 C49.286,7.4671 48.859,7.6861 48.419,7.9791 L48.419,15.7601 L45.939,15.7601 L45.939,5.0401 Z" id="Fill-11" fill="#FFFFFF"></path>
            <path d="M69.9985,9.7998 C70.4785,9.7998 70.8255,9.7068 71.0395,9.5198 C71.2525,9.3328 71.3595,9.0068 71.3595,8.5398 C71.3595,7.8468 71.2055,7.3658 70.8985,7.0998 C70.5925,6.8328 70.0595,6.6998 69.2995,6.6998 C68.7255,6.6998 68.2825,6.7898 67.9695,6.9698 C67.6555,7.1498 67.4295,7.4598 67.2895,7.8998 C67.1495,8.3398 67.0795,8.9738 67.0795,9.7998 L69.9985,9.7998 Z M66.5695,15.3698 C65.8955,15.0428 65.4095,14.4898 65.1095,13.7098 C64.8095,12.9298 64.6595,11.8258 64.6595,10.3998 C64.6595,8.9458 64.8025,7.8258 65.0895,7.0398 C65.3755,6.2528 65.8495,5.6998 66.5095,5.3798 C67.1695,5.0598 68.0995,4.8998 69.2995,4.8998 C70.3525,4.8998 71.1855,5.0068 71.7995,5.2198 C72.4125,5.4338 72.8595,5.8028 73.1395,6.3298 C73.4195,6.8568 73.5595,7.5928 73.5595,8.5398 C73.5595,9.5268 73.2755,10.2338 72.7095,10.6598 C72.1435,11.0868 71.3185,11.2998 70.2385,11.2998 L67.0995,11.2998 C67.1255,11.9928 67.2195,12.5288 67.3795,12.9098 C67.5395,13.2898 67.8225,13.5668 68.2285,13.7398 C68.6355,13.9128 69.2255,13.9998 69.9985,13.9998 L73.2385,13.9998 L73.2385,15.4598 C72.5195,15.5928 71.8755,15.6938 71.3095,15.7598 C70.7425,15.8258 70.0925,15.8598 69.3595,15.8598 C68.1725,15.8598 67.2425,15.6958 66.5695,15.3698 Z" id="Fill-13" fill="#FFFFFF"></path>
            <path d="M83.7192,10.0401 L81.6392,3.1201 L79.5602,10.0401 L83.7192,10.0401 Z M80.1192,1.0001 L83.2402,1.0001 L88.0392,15.7601 L85.4592,15.7601 L84.3202,12.2601 L78.9802,12.2601 L77.8602,15.7601 L75.3202,15.7601 L80.1192,1.0001 Z" id="Fill-15" fill-opacity="0.567595109" fill="#FFFFFF"></path>
            <polygon id="Fill-17" fill-opacity="0.567595109" fill="#FFFFFF" points="90.17 15.7599 92.629 15.7599 92.629 0.9999 90.17 0.9999"></polygon>
        </g>
    </g>
</svg>